<svg width="45" height="45" viewBox="0 0 45 45" fill="none" xmlns="http://www.w3.org/2000/svg">
<path d="M42.7091 31.8136C42.5114 31.7045 42.2728 31.7045 42.0818 31.8205L38.2364 34.125C36.7091 35.0386 34.8137 35.0386 33.2932 34.125L32.2432 33.4977C30.3205 32.3455 27.9341 32.3455 26.0182 33.4977L24.975 34.125C24.1773 34.6023 23.2841 34.8273 22.3909 34.8068C21.6887 27.7636 22.3909 22.6023 23.6932 18.8318C23.7818 18.8864 23.8637 18.9409 23.9523 18.9886C25.0705 19.5886 26.25 19.8886 27.45 19.8886C28.6023 19.8886 29.7682 19.6091 30.9341 19.0568C33.1705 17.9932 34.9023 16.0773 35.8159 13.6705C36.2659 12.4909 36.8387 10.6636 37.0637 8.63182C37.1864 7.62954 37.7455 4.82727 38.8841 3.85909C39.075 3.70227 39.15 3.44318 39.075 3.21136C39.0068 2.97273 38.8023 2.80227 38.5568 2.76818C38.1477 2.71363 28.6978 1.56818 23.3864 6.36136C21.1023 8.42045 20.0591 11.3864 20.5841 14.2841C20.8568 15.7977 21.5455 17.0591 22.5818 18.0068C22.0023 19.6364 21.525 21.5182 21.225 23.7C20.2159 23.7205 17.7068 23.55 14.9591 21.7636C15.0068 21.6955 15.0614 21.6341 15.1091 21.5591C16.2409 19.8273 16.4318 17.8295 15.6682 15.7909C14.9455 13.875 13.4932 12.3068 11.5705 11.3864C10.6364 10.9364 9.18411 10.3364 7.53411 10.0159C6.7432 9.85227 4.53411 9.21136 3.85229 8.25C3.70911 8.04545 3.46366 7.95 3.2182 8.00454C2.97957 8.05227 2.78866 8.24318 2.73411 8.48182C2.66593 8.80909 1.06366 16.4591 4.61593 21.15C6.02048 22.9977 8.11366 24.0545 10.3091 24.0545C10.5273 24.0545 10.7455 24.0409 10.9637 24.0205C12.1841 23.9045 13.2409 23.4545 14.0932 22.7182C16.9841 24.6682 19.6841 24.9545 21.0137 24.9545H21.075C20.7887 27.7159 20.7682 30.9136 21.1159 34.6091C20.7341 34.4932 20.3659 34.3432 20.0182 34.1318L18.975 33.5045C17.0523 32.3523 14.6659 32.3523 12.7432 33.5045L11.7 34.1318C10.1727 35.0455 8.27729 35.0455 6.75002 34.1318L2.91139 31.8273C2.72729 31.7045 2.48866 31.7045 2.29093 31.8136C2.0932 31.9227 1.97729 32.1341 1.97729 32.3523V41.7614C1.97729 42.1023 2.25684 42.3818 2.59775 42.3818H42.4023C42.7432 42.3818 43.0227 42.1023 43.0227 41.7614V32.3523C43.0227 32.1341 42.9068 31.9227 42.7091 31.8136ZM21.8114 14.0591C21.3614 11.5841 22.2614 9.05454 24.225 7.28182C27.4568 4.36364 32.5841 3.86591 35.7 3.86591C36.2932 3.86591 36.8182 3.88636 37.2409 3.90682C36.1909 5.61818 35.8637 8.14091 35.8159 8.48864C35.6114 10.3977 35.0659 12.1159 34.6432 13.2273C33.8455 15.3341 32.3318 17.0045 30.3887 17.9318C28.3637 18.8932 26.3932 18.8795 24.5387 17.8841C24.3955 17.8091 24.2659 17.7205 24.1364 17.6386C27.0887 10.425 32.2227 8.97954 32.3114 8.95227C32.6455 8.87045 32.8432 8.52954 32.7614 8.19545C32.6796 7.86136 32.3387 7.66364 32.0046 7.74545C31.65 7.83409 26.2296 9.32045 23.0796 16.7386C22.4318 16.0295 22.0091 15.1295 21.8114 14.0591ZM10.8477 22.7795C8.8432 22.9636 6.88639 22.0773 5.61139 20.3932C3.15002 17.1409 3.4773 12.0682 3.77048 9.84545C5.10684 10.7591 7.00911 11.175 7.28184 11.2364C8.8023 11.5364 10.1591 12.0955 11.025 12.5114C12.6546 13.2955 13.8887 14.6182 14.4955 16.2341C15.1228 17.9114 14.9796 19.4795 14.0591 20.8841C14.025 20.9386 13.9841 20.9864 13.9432 21.0409C12.4841 19.8886 10.9978 18.2523 9.6682 15.9205C9.49775 15.6205 9.11593 15.5182 8.81593 15.6886C8.51593 15.8591 8.41366 16.2409 8.58411 16.5409C9.97502 18.9886 11.5296 20.7273 13.0568 21.9682C12.45 22.4182 11.7137 22.6977 10.8477 22.7795ZM41.7818 41.1409H3.2182V33.4568L6.10911 35.1955C8.03184 36.3477 10.4182 36.3477 12.3409 35.1955L13.3841 34.5682C14.9114 33.6545 16.8068 33.6545 18.3341 34.5682L19.3773 35.1955C20.1341 35.6455 20.9591 35.9182 21.8046 36.0136H21.8114H21.8182C23.1137 36.1568 24.4432 35.8909 25.6091 35.1955L26.6523 34.5682C28.1796 33.6545 30.075 33.6545 31.6023 34.5682L32.6523 35.1955C34.575 36.3477 36.9546 36.3477 38.8773 35.1955L41.7818 33.4568V41.1409Z" fill="#99A537"/>
<path d="M37.3023 39.9004C37.8181 39.9004 38.2363 39.4822 38.2363 38.9663C38.2363 38.4504 37.8181 38.0322 37.3023 38.0322C36.7864 38.0322 36.3682 38.4504 36.3682 38.9663C36.3682 39.4822 36.7864 39.9004 37.3023 39.9004Z" fill="#99A537"/>
<path d="M31.9841 39.9004C32.5 39.9004 32.9182 39.4822 32.9182 38.9663C32.9182 38.4504 32.5 38.0322 31.9841 38.0322C31.4683 38.0322 31.05 38.4504 31.05 38.9663C31.05 39.4822 31.4683 39.9004 31.9841 39.9004Z" fill="#99A537"/>
<path d="M27.5045 38.3662C28.0204 38.3662 28.4386 37.948 28.4386 37.4321C28.4386 36.9163 28.0204 36.498 27.5045 36.498C26.9886 36.498 26.5704 36.9163 26.5704 37.4321C26.5704 37.948 26.9886 38.3662 27.5045 38.3662Z" fill="#99A537"/>
<path d="M23.4681 40.5205C23.984 40.5205 24.4022 40.1023 24.4022 39.5864C24.4022 39.0706 23.984 38.6523 23.4681 38.6523C22.9523 38.6523 22.5341 39.0706 22.5341 39.5864C22.5341 40.1023 22.9523 40.5205 23.4681 40.5205Z" fill="#99A537"/>
<path d="M19.7387 38.9932C20.2545 38.9932 20.6727 38.575 20.6727 38.0591C20.6727 37.5432 20.2545 37.125 19.7387 37.125C19.2228 37.125 18.8046 37.5432 18.8046 38.0591C18.8046 38.575 19.2228 38.9932 19.7387 38.9932Z" fill="#99A537"/>
<path d="M14.8091 40.2344C15.325 40.2344 15.7432 39.8162 15.7432 39.3003C15.7432 38.7844 15.325 38.3662 14.8091 38.3662C14.2932 38.3662 13.875 38.7844 13.875 39.3003C13.875 39.8162 14.2932 40.2344 14.8091 40.2344Z" fill="#99A537"/>
<path d="M10.6091 38.9932C11.125 38.9932 11.5432 38.575 11.5432 38.0591C11.5432 37.5432 11.125 37.125 10.6091 37.125C10.0933 37.125 9.67505 37.5432 9.67505 38.0591C9.67505 38.575 10.0933 38.9932 10.6091 38.9932Z" fill="#99A537"/>
<path d="M7.07728 40.2344C7.59316 40.2344 8.01137 39.8162 8.01137 39.3003C8.01137 38.7844 7.59316 38.3662 7.07728 38.3662C6.5614 38.3662 6.14319 38.7844 6.14319 39.3003C6.14319 39.8162 6.5614 40.2344 7.07728 40.2344Z" fill="#99A537"/>
</svg>
